<svg width="120" height="120" viewBox="0 0 120 120" fill="none" xmlns="http://www.w3.org/2000/svg">
<rect width="120" height="120" rx="60" fill="#2169EB"/>
<path d="M59.7085 37.5168L60 37.5C61.282 37.5 62.3388 38.4651 62.4833 39.7084L62.5 40V57.5H80C81.282 57.5 82.3387 58.465 82.4832 59.7085L82.5 60C82.5 61.282 81.535 62.3388 80.2915 62.4833L80 62.5H62.5V80C62.5 81.282 61.535 82.3387 60.2915 82.4832L60 82.5C58.718 82.5 57.6612 81.535 57.5167 80.2915L57.5 80V62.5H40C38.7179 62.5 37.6612 61.535 37.5168 60.2915L37.5 60C37.5 58.718 38.4651 57.6612 39.7084 57.5167L40 57.5H57.5V40C57.5 38.7179 58.465 37.6612 59.7085 37.5168L60 37.5L59.7085 37.5168Z" fill="white"/>
</svg>
